<svg fill="none" height="64" viewBox="0 0 64 64" width="64" xmlns="http://www.w3.org/2000/svg"><g fill="rgb(0,0,0)"><path d="m32 27.3333c2.5773 0 4.6667-2.0893 4.6667-4.6666 0-2.5774-2.0894-4.6667-4.6667-4.6667s-4.6667 2.0893-4.6667 4.6667c0 2.5773 2.0894 4.6666 4.6667 4.6666z"/><path clip-rule="evenodd" d="m62 32c0-16.5685-13.4315-30-30-30s-30 13.4315-30 30 13.4315 30 30 30 30-13.4315 30-30zm-38.6667-9.3333c0-4.7865 3.8802-8.6667 8.6667-8.6667s8.6667 3.8802 8.6667 8.6667c0 2.2762-.8775 4.3474-2.3127 5.8939 6.2413 2.5166 10.646 8.6303 10.646 15.7727v1.6667c0 1.1046-.8954 2-2 2s-2-.8954-2-2v-1.6667c0-7.1797-5.8203-13-13-13s-13 5.8203-13 13v1.6667c0 1.1046-.8954 2-2 2s-2-.8954-2-2v-1.6667c0-7.1424 4.4047-13.2561 10.646-15.7727-1.4352-1.5465-2.3127-3.6177-2.3127-5.8939z" fill-rule="evenodd"/></g></svg>